# xmcd
#
# Track frame offsets:
# 150
# 23225
# 42712
# 55266
# 69911
# 84359
# 104201
# 117227
# 135662
# 147419
# 164830
# 176620
# 190628
# 206436
#
# Disc length: 2934 seconds
#
#
# Revision: 0
# Processed by: cddbd v1.5.2PL0 Copyright (c) Steve Scherf et al.
# Submitted via: FreeRIP 2.944 
#
DISCID=cf0b740e
DTITLE=LINEDANCE CD2
DYEAR=2012
DGENRE=
TTITLE0=ALAN JACKSON - GOOD TIME
TTITLE1=MAVERICKS - ALL YOU EVER DO IS BRING ME DOWN
TTITLE2=ARCHIES - SUGAR SUGAR
TTITLE3=CHARLENE CARTER - EVERY LITTLE THING
TTITLE4=RADNEY FOSTER - CUT A RUG JUST CALL ME LONESOME
TTITLE5=MAVERICKS - DANCE THE NIGHT AWAY
TTITLE6=ALAN JACKSON - DON´T ROCK THE JUKEBOX
TTITLE7=SHANIA TWAIN - I´M GONNA GETCHA GOOD
TTITLE8=JOHNNY CASH - RING OF FIRE
TTITLE9=SHAM ROCK - TELL ME MA
TTITLE10=SHAM ROCK - THE BATTLE OF NEW ORLEANS
TTITLE11=JOHN DENVER - THANK GOD I´M A COUNTRY BOY
TTITLE12=HOSSBOSS - DON´T GIMME THAT
TTITLE13=WOOLPACKERS - HILLIBILLY ROCK, HILLIBILLY ROLL
EXTD=
EXTT0=
EXTT1=
EXTT2=
EXTT3=
EXTT4=
EXTT5=
EXTT6=
EXTT7=
EXTT8=
EXTT9=
EXTT10=
EXTT11=
EXTT12=
EXTT13=
PLAYORDER=
